# xmcd
#
# Track frame offsets: 
#        150
#        17811
#        31491
#        48192
#        60071
#        74973
#        89732
#        106248
#        123907
#        140753
#        156629
#
# Disc length: 2275 seconds
#
# Revision: 5
# Processed by: cddbd v1.5.1PL0 Copyright (c) Steve Scherf et al.
# Submitted via: ExactAudioCopy v0.95b2
#
DISCID=9e08e10b
DTITLE=Wilkinsons - Nothing But Love
DYEAR=1998
DGENRE=
TTITLE0=26 cents
TTITLE1=Boy Oh Boy
TTITLE2=Fly
TTITLE3=Don't I Have A Heart
TTITLE4=The Yodelin' Blues
TTITLE5=Nothing But Love (Standing In The Way)
TTITLE6=The Word
TTITLE7=Williamstown
TTITLE8=Then There's You
TTITLE9=Back On My Feet
TTITLE10=One Faithful Heart
EXTD=
EXTT0=
EXTT1=
EXTT2=
EXTT3=
EXTT4=
EXTT5=
EXTT6=
EXTT7=
EXTT8=
EXTT9=
EXTT10=
PLAYORDER=
